# xmcd CD database file
#
# Track frame offsets:
#	150
#	23117
#	43992
#	65900
#	83485
#	104040
#	123935
#	146000
#	166355
#	189030
#
# Disc length: 2785 seconds
#
# Revision: 0
# Processed by: cddbd v1.5.1PL0 Copyright (c) Steve Scherf et al.
# Submitted via: NeoAudio 9.9.9
#
DISCID=880adf0a
DTITLE=Salsa Kids - CD 2
DYEAR=1999
DGENRE=Salsa
TTITLE0=Niña Mujer
TTITLE1=Princesa
TTITLE2=Besame
TTITLE3=Abre Bien Las Pertas
TTITLE4=Mi Destino
TTITLE5=Quiero Robarte Un Beso
TTITLE6=Dime Que Si
TTITLE7=La Carta
TTITLE8=No Puedo Mas Amor
TTITLE9=La Magia De Tus 15 Años
EXTD=YEAR: 1999
EXTT0=
EXTT1=
EXTT2=
EXTT3=
EXTT4=
EXTT5=
EXTT6=
EXTT7=
EXTT8=
EXTT9=
PLAYORDER=
